<?xml version="1.0" encoding="UTF-8" standalone="no"?>
<!DOCTYPE svg PUBLIC "-//W3C//DTD SVG 1.1//EN"
 "http://www.w3.org/Graphics/SVG/1.1/DTD/svg11.dtd">
<!-- Generated by graphviz version 13.1.2 (0)
 -->
<!-- Pages: 1 -->
<svg width="435pt" height="604pt"
 viewBox="0.00 0.00 435.00 604.00" xmlns="http://www.w3.org/2000/svg" xmlns:xlink="http://www.w3.org/1999/xlink">
<g id="graph0" class="graph" transform="scale(1 1) rotate(0) translate(4 599.6)">
<polygon fill="#fff0cc" stroke="none" points="-4,4 -4,-599.6 430.5,-599.6 430.5,4 -4,4"/>
<g id="clust1" class="cluster">
<title>cluster_line_1</title>
<polygon fill="#fff0cc" stroke="#081b68" points="8,-463.6 8,-587.6 210,-587.6 210,-463.6 8,-463.6"/>
</g>
<!-- ifdz -->
<g id="node1" class="node">
<title>ifdz</title>
<ellipse fill="#081b68" stroke="#081b68" cx="109" cy="-561.6" rx="93.3" ry="18"/>
<text xml:space="preserve" text-anchor="middle" x="109" y="-556.93" font-family="Times,serif" font-size="14.00" fill="#ffe29d">if distance.zero?</text>
</g>
<!-- retlie -->
<g id="node4" class="node">
<title>retlie</title>
<polygon fill="#081b68" stroke="#081b68" points="181.12,-507.6 36.88,-507.6 36.88,-471.6 181.12,-471.6 181.12,-507.6"/>
<text xml:space="preserve" text-anchor="middle" x="109" y="-484.93" font-family="Times,serif" font-size="14.00" fill="#ffe29d">return &#39;Lie down!&#39;</text>
</g>
<!-- ifdz&#45;&gt;retlie -->
<g id="edge1" class="edge">
<title>ifdz&#45;&gt;retlie</title>
<path fill="none" stroke="#3a52b1" d="M109,-543.3C109,-536.01 109,-527.33 109,-519.14"/>
<polygon fill="#3a52b1" stroke="#3a52b1" points="112.5,-519.22 109,-509.22 105.5,-519.22 112.5,-519.22"/>
</g>
<!-- start -->
<g id="node6" class="node">
<title>start</title>
<polygon fill="#081b68" stroke="#081b68" points="360,-507.6 218,-507.6 218,-471.6 360,-471.6 360,-507.6"/>
<text xml:space="preserve" text-anchor="middle" x="289" y="-484.93" font-family="Times,serif" font-size="14.00" fill="#ffe29d">hop = String.new</text>
</g>
<!-- ifdz&#45;&gt;start -->
<g id="edge3" class="edge">
<title>ifdz&#45;&gt;start</title>
<path fill="none" stroke="#3a52b1" d="M148.95,-545.06C173.82,-535.39 206.17,-522.81 233.51,-512.18"/>
<polygon fill="#3a52b1" stroke="#3a52b1" points="234.64,-515.5 242.69,-508.61 232.1,-508.97 234.64,-515.5"/>
</g>
<!-- ifdp -->
<g id="node2" class="node">
<title>ifdp</title>
<ellipse fill="#081b68" stroke="#081b68" cx="289" cy="-417.6" rx="111.18" ry="18"/>
<text xml:space="preserve" text-anchor="middle" x="289" y="-412.93" font-family="Times,serif" font-size="14.00" fill="#ffe29d">if distance.positive?</text>
</g>
<!-- ready -->
<g id="node7" class="node">
<title>ready</title>
<polygon fill="#081b68" stroke="#081b68" points="282.5,-363.6 155.5,-363.6 155.5,-327.6 282.5,-327.6 282.5,-363.6"/>
<text xml:space="preserve" text-anchor="middle" x="219" y="-340.93" font-family="Times,serif" font-size="14.00" fill="#ffe29d">hop &lt;&lt; &#39;Ready&#39;</text>
</g>
<!-- ifdp&#45;&gt;ready -->
<g id="edge5" class="edge">
<title>ifdp&#45;&gt;ready</title>
<path fill="none" stroke="#3a52b1" d="M272.05,-399.65C263.75,-391.35 253.58,-381.18 244.38,-371.98"/>
<polygon fill="#3a52b1" stroke="#3a52b1" points="246.89,-369.54 237.35,-364.95 241.94,-374.49 246.89,-369.54"/>
</g>
<!-- turn -->
<g id="node8" class="node">
<title>turn</title>
<polygon fill="#081b68" stroke="#081b68" points="417.25,-363.6 300.75,-363.6 300.75,-327.6 417.25,-327.6 417.25,-363.6"/>
<text xml:space="preserve" text-anchor="middle" x="359" y="-340.93" font-family="Times,serif" font-size="14.00" fill="#ffe29d">hop &lt;&lt; &#39;Turn&#39;</text>
</g>
<!-- ifdp&#45;&gt;turn -->
<g id="edge6" class="edge">
<title>ifdp&#45;&gt;turn</title>
<path fill="none" stroke="#3a52b1" d="M305.95,-399.65C314.25,-391.35 324.42,-381.18 333.62,-371.98"/>
<polygon fill="#3a52b1" stroke="#3a52b1" points="336.06,-374.49 340.65,-364.95 331.11,-369.54 336.06,-374.49"/>
</g>
<!-- ifdl -->
<g id="node3" class="node">
<title>ifdl</title>
<ellipse fill="#081b68" stroke="#081b68" cx="289" cy="-201.6" rx="104.87" ry="18"/>
<text xml:space="preserve" text-anchor="middle" x="289" y="-196.92" font-family="Times,serif" font-size="14.00" fill="#ffe29d">if distance.abs &gt; 1</text>
</g>
<!-- hippity -->
<g id="node10" class="node">
<title>hippity</title>
<polygon fill="#081b68" stroke="#081b68" points="293.88,-147.6 124.12,-147.6 124.12,-111.6 293.88,-111.6 293.88,-147.6"/>
<text xml:space="preserve" text-anchor="middle" x="209" y="-124.92" font-family="Times,serif" font-size="14.00" fill="#ffe29d">hop &lt;&lt; &#39;hippity&#45;hop!&#39;</text>
</g>
<!-- ifdl&#45;&gt;hippity -->
<g id="edge10" class="edge">
<title>ifdl&#45;&gt;hippity</title>
<path fill="none" stroke="#3a52b1" d="M269.63,-183.65C259.95,-175.18 248.05,-164.77 237.36,-155.42"/>
<polygon fill="#3a52b1" stroke="#3a52b1" points="239.71,-152.82 229.88,-148.87 235.1,-158.09 239.71,-152.82"/>
</g>
<!-- hop -->
<g id="node11" class="node">
<title>hop</title>
<polygon fill="#081b68" stroke="#081b68" points="426.5,-147.6 311.5,-147.6 311.5,-111.6 426.5,-111.6 426.5,-147.6"/>
<text xml:space="preserve" text-anchor="middle" x="369" y="-124.92" font-family="Times,serif" font-size="14.00" fill="#ffe29d">hop &lt;&lt; &#39;hop!&#39;</text>
</g>
<!-- ifdl&#45;&gt;hop -->
<g id="edge11" class="edge">
<title>ifdl&#45;&gt;hop</title>
<path fill="none" stroke="#3a52b1" d="M308.37,-183.65C318.05,-175.18 329.95,-164.77 340.64,-155.42"/>
<polygon fill="#3a52b1" stroke="#3a52b1" points="342.9,-158.09 348.12,-148.87 338.29,-152.82 342.9,-158.09"/>
</g>
<!-- endlie -->
<g id="node12" class="node">
<title>endlie</title>
<ellipse fill="#081b68" stroke="#081b68" cx="109" cy="-417.6" rx="1.8" ry="1.8"/>
</g>
<!-- retlie&#45;&gt;endlie -->
<g id="edge2" class="edge">
<title>retlie&#45;&gt;endlie</title>
<path fill="none" stroke="#3a52b1" d="M109,-471.3C109,-458.68 109,-441.89 109,-430.69"/>
<polygon fill="#3a52b1" stroke="#3a52b1" points="112.5,-430.92 109,-420.92 105.5,-430.92 112.5,-430.92"/>
</g>
<!-- rethop -->
<g id="node5" class="node">
<title>rethop</title>
<polygon fill="#081b68" stroke="#081b68" points="335.25,-75.6 242.75,-75.6 242.75,-39.6 335.25,-39.6 335.25,-75.6"/>
<text xml:space="preserve" text-anchor="middle" x="289" y="-52.92" font-family="Times,serif" font-size="14.00" fill="#ffe29d">return hop</text>
</g>
<!-- endhop -->
<g id="node13" class="node">
<title>endhop</title>
<ellipse fill="#081b68" stroke="#081b68" cx="289" cy="-1.8" rx="1.8" ry="1.8"/>
</g>
<!-- rethop&#45;&gt;endhop -->
<g id="edge14" class="edge">
<title>rethop&#45;&gt;endhop</title>
<path fill="none" stroke="#3a52b1" d="M289,-39.28C289,-31.47 289,-22.41 289,-15.28"/>
<polygon fill="#3a52b1" stroke="#3a52b1" points="292.5,-15.47 289,-5.47 285.5,-15.47 292.5,-15.47"/>
</g>
<!-- start&#45;&gt;ifdp -->
<g id="edge4" class="edge">
<title>start&#45;&gt;ifdp</title>
<path fill="none" stroke="#3a52b1" d="M289,-471.3C289,-464.01 289,-455.33 289,-447.14"/>
<polygon fill="#3a52b1" stroke="#3a52b1" points="292.5,-447.22 289,-437.22 285.5,-447.22 292.5,-447.22"/>
</g>
<!-- and -->
<g id="node9" class="node">
<title>and</title>
<polygon fill="#081b68" stroke="#081b68" points="348,-291.6 230,-291.6 230,-255.6 348,-255.6 348,-291.6"/>
<text xml:space="preserve" text-anchor="middle" x="289" y="-268.93" font-family="Times,serif" font-size="14.00" fill="#ffe29d">hop &lt;&lt; &#39; and &#39;</text>
</g>
<!-- ready&#45;&gt;and -->
<g id="edge7" class="edge">
<title>ready&#45;&gt;and</title>
<path fill="none" stroke="#3a52b1" d="M236.3,-327.3C244.61,-318.99 254.72,-308.88 263.86,-299.74"/>
<polygon fill="#3a52b1" stroke="#3a52b1" points="266.23,-302.32 270.83,-292.77 261.28,-297.37 266.23,-302.32"/>
</g>
<!-- turn&#45;&gt;and -->
<g id="edge8" class="edge">
<title>turn&#45;&gt;and</title>
<path fill="none" stroke="#3a52b1" d="M341.7,-327.3C333.39,-318.99 323.28,-308.88 314.14,-299.74"/>
<polygon fill="#3a52b1" stroke="#3a52b1" points="316.72,-297.37 307.17,-292.77 311.77,-302.32 316.72,-297.37"/>
</g>
<!-- and&#45;&gt;ifdl -->
<g id="edge9" class="edge">
<title>and&#45;&gt;ifdl</title>
<path fill="none" stroke="#3a52b1" d="M289,-255.3C289,-248.01 289,-239.33 289,-231.14"/>
<polygon fill="#3a52b1" stroke="#3a52b1" points="292.5,-231.22 289,-221.22 285.5,-231.22 292.5,-231.22"/>
</g>
<!-- hippity&#45;&gt;rethop -->
<g id="edge12" class="edge">
<title>hippity&#45;&gt;rethop</title>
<path fill="none" stroke="#3a52b1" d="M228.78,-111.3C238.39,-102.88 250.12,-92.62 260.67,-83.39"/>
<polygon fill="#3a52b1" stroke="#3a52b1" points="262.81,-86.16 268.04,-76.94 258.21,-80.89 262.81,-86.16"/>
</g>
<!-- hop&#45;&gt;rethop -->
<g id="edge13" class="edge">
<title>hop&#45;&gt;rethop</title>
<path fill="none" stroke="#3a52b1" d="M349.22,-111.3C339.61,-102.88 327.88,-92.62 317.33,-83.39"/>
<polygon fill="#3a52b1" stroke="#3a52b1" points="319.79,-80.89 309.96,-76.94 315.19,-86.16 319.79,-80.89"/>
</g>
</g>
</svg>
